<?xml version="1.0" encoding="UTF-8"?>
<svg width="21px" height="14px" viewBox="0 0 21 14" version="1.1" xmlns="http://www.w3.org/2000/svg" xmlns:xlink="http://www.w3.org/1999/xlink">
    <title>Group 3</title>
    <g id="-" stroke="none" stroke-width="1" fill="none" fill-rule="evenodd">
        <g id="TopBar_select" transform="translate(-38.000000, -99.000000)" fill="#FFFFFF" fill-rule="nonzero">
            <g id="iconHamburguer" transform="translate(38.000000, 99.000000)">
                <path d="M0,1 C0,0.44771 0.44772,0 1,0 L20,0 C20.5523,0 21,0.44771 21,1 C21,1.55229 20.5523,2 20,2 L1,2 C0.44772,2 0,1.55229 0,1 Z" id="Path"></path>
                <path d="M0,7.0001 C0,6.4478 0.44772,6 1,6 L12,6.0003 C12.5523,6.0003 13,6.448 13,7.0003 C13,7.5526 12.5523,8.0003 12,8.0003 L1,8.0001 C0.44772,8.0001 0,7.5523 0,7.0001 Z" id="Path"></path>
                <path d="M1,12 C0.44772,12 0,12.4477224 0,13.00005 C0,13.5522776 0.44772,14 1,14 L18,14 C18.5523,14 19,13.5522776 19,13.00005 C19,12.4477224 18.5523,12 18,12 L1,12 Z" id="Path" transform="translate(9.500000, 13.000000) scale(1, -1) translate(-9.500000, -13.000000) "></path>
            </g>
        </g>
    </g>
</svg>