<svg xmlns="http://www.w3.org/2000/svg" width="153" height="35" viewBox="0 0 153 35">
    <g fill="none" fill-rule="evenodd">
        <g fill-rule="nonzero">
            <g>
                <g>
                    <path fill="#FFF" d="M78.76 34.806h-5.374c-.52 0-.614-.156-.497-.63.186-.724.341-1.455.466-2.186.07-.404.264-.498.644-.498h8.318c1.025 0 1.087-.054 1.336-1.058.38-1.485.38-1.485-1.142-1.485H76.05c-.387.017-.773-.033-1.142-.148-.53-.15-.906-.623-.932-1.174-.024-.524.03-1.049.163-1.556.715-3.422 1.445-6.837 2.151-10.267.101-.49.264-.715.824-.676.85.046 1.704.046 2.555 0 .505 0 .551.163.458.599-.614 2.854-1.204 5.709-1.817 8.555-.35 1.602-.365 1.602 1.25 1.602h4.613c.365 0 .513-.108.583-.482.668-3.212 1.367-6.424 2.02-9.636.1-.498.263-.677.776-.654.776.047 1.553 0 2.33 0 .776 0 .846 0 .66.871-.552 2.684-1.119 5.406-1.693 8.128-.575 2.722-1.18 5.538-1.787 8.315-.126 1.094-.914 1.998-1.98 2.27-.48.106-.97.153-1.46.14H78.76v-.03zM98.417 28.972h-5.693c-1.483 0-2.058-.638-1.802-2.084.257-1.447.59-3.057.971-4.566.074-.563.368-1.073.819-1.418.45-.344 1.02-.495 1.581-.417h8c.512 0 .776-.148.776-.654.03-.212.072-.422.124-.63.195-.949.101-1.065-.893-1.065h-8.574c-.365 0-.481-.07-.396-.436.17-.778.334-1.493.482-2.248.046-.264.178-.334.427-.334H105.5c1.553 0 2.082.708 1.794 2.24-.528 2.8-1.15 5.592-1.732 8.384-.186.895-.404 1.79-.559 2.692-.062.412-.24.513-.629.505-1.988.023-3.969.031-5.957.031zm0-3.243h2.75c.458 0 .698-.093.776-.599.077-.614.204-1.22.38-1.812.133-.451 0-.545-.427-.545h-4.403c-2.439.04-1.996-.474-2.586 2.225-.11.505.077.715.59.708.97.015 1.95.023 2.928.023h-.008z" transform="translate(-253 -38) translate(-3 1) translate(256 37)"/>
                    <path fill="#E40425" d="M22.46 28.964h-5.374c-.339.004-.677-.027-1.01-.093-.335-.033-.644-.2-.856-.463-.211-.264-.309-.601-.27-.937.063-.894.211-1.78.443-2.644.139-.863.336-1.715.59-2.551.435-1.354 1.033-1.774 2.455-1.774h7.805c.575 0 .777-.155.924-.73.334-1.603.319-1.658-1.32-1.658h-7.868c-.543 0-.667-.14-.528-.645.14-.506.264-1.252.389-1.882.062-.311.186-.467.543-.467h11.005c.149.008.296.023.443.047 1.227.163 1.678.669 1.553 1.89-.124 1.22-.419 2.333-.66 3.523-.543 2.582-1.118 5.164-1.646 7.778-.093.474-.295.606-.777.606-1.957-.007-3.899 0-5.84 0zm.568-6.222h-1.794c-1.888 0-1.849-.288-2.183 1.766 0 .124-.07.249-.093.373-.124.7 0 .84.707.84h4.792c1.382 0 1.382 0 1.685-1.345.085-.374.163-.778.264-1.12.101-.343 0-.537-.443-.53-.978.055-1.957.047-2.935.047v-.03zM63.538 28.964h-4.474c-.404.016-.81-.023-1.204-.116-.726-.086-1.247-.743-1.165-1.47.007-.298.041-.595.101-.887.606-2.901 1.204-5.802 1.826-8.703.248-1.151.699-2.178 1.996-2.481.435-.1.88-.15 1.328-.148h8.962c2.167 0 2.695.669 2.245 2.8-.552 2.613-1.088 5.219-1.631 7.832-.062.288-.14.576-.226.863-.458 1.673-1.234 2.287-2.982 2.334h-2.43l-2.346-.024zm.73-3.297h2.687c.236.03.474-.034.663-.18.188-.146.31-.362.339-.598.399-1.877.792-3.752 1.18-5.623.11-.537-.077-.778-.652-.778h-5.499c-.424-.055-.813.244-.87.669-.403 1.944-.776 3.889-1.203 5.825-.101.498.1.716.605.708l2.75-.023zM6.594 28.964H2.33c-.34.005-.681-.02-1.017-.077-.387-.011-.75-.188-.997-.486-.246-.298-.353-.688-.293-1.07.137-1.228.363-2.445.676-3.64.357-1.797.777-3.593 1.134-5.382.046-.21.078-.428.124-.63.42-1.711 1.274-2.458 3.014-2.473h9.32c.38 0 .543.085.434.513-.186.778-.35 1.501-.473 2.255-.07.467-.296.568-.73.568h-6.78c-1.065 0-1.189.11-1.406 1.151-.334 1.61-.676 3.213-1.01 4.823-.225 1.065-.14 1.158.979 1.158h6.531c.948 0 .777-.046.606.778-.132.685-.318 1.37-.42 2.061-.062.413-.24.521-.629.514-1.638-.07-3.215-.063-4.8-.063z" transform="translate(-253 -38) translate(-3 1) translate(256 37)"/>
                    <path fill="#E40427" d="M95.155 0c4.382.065 8.409 2.427 10.61 6.222.24.39.139.537-.25.677-.838.303-1.677.622-2.5.98-.15.093-.332.12-.501.072-.17-.047-.312-.164-.392-.321-2.095-2.867-5.6-4.34-9.11-3.827-4.401.53-7.902 3.946-8.544 8.338-.305 1.735-.1 3.521.59 5.141.218.514.063.607-.426.591-1.631 0-1.274.296-1.795-1.267-1.689-5.092.04-10.696 4.303-13.946C89.442.906 92.263-.03 95.155 0z" transform="translate(-253 -38) translate(-3 1) translate(256 37)"/>
                    <path fill="#E40425" d="M139.432 20.137c.637-.616 1.523-.903 2.4-.778h2.617c.7-.116 1.374.323 1.553 1.011.715-1.034 1.709-1.05 2.734-1.011h2.493c1.049 0 1.476.474 1.29 1.501-.373 2.061-.824 4.099-1.243 6.152-.101.482-.24.957-.303 1.44-.062.481-.194.56-.598.536h-1.662c-.388 0-.458-.086-.373-.475.443-2.022.847-4.052 1.274-6.074.147-.716.077-.817-.684-.825-.76-.007-1.553 0-2.33 0-.243-.04-.492.027-.682.186-.19.158-.3.392-.304.639-.373 1.905-.777 3.803-1.165 5.709-.116.606-.334.956-1.025.855-.426-.042-.855-.042-1.282 0-.411 0-.497-.1-.403-.52.427-1.953.83-3.89 1.234-5.889.187-.902.148-.956-.776-.956h-2.175c-.722 0-.947.24-1.072.879-.38 1.975-.823 3.927-1.211 5.895-.093.482-.295.646-.777.607-.447-.043-.897-.043-1.343 0-.583.062-.614-.21-.52-.669.615-2.836 1.219-5.675 1.809-8.517.07-.326.186-.482.543-.459.427.028.855.028 1.282 0 .528-.07.893.024.699.763zM37.94 16.333c.962-1.112 2.182-1.26 3.486-1.22h2.618c.373 0 .559.038.427.497-.19.698-.339 1.407-.443 2.123-.077.576-.357.693-.893.677H38.6c-.9 0-1.056.124-1.242 1.019-.63 2.987-1.266 5.965-1.872 8.952-.078.405-.202.583-.644.568h-2.812c-.35 0-.42-.101-.342-.451.917-4.294 1.825-8.59 2.726-12.888.078-.373.226-.498.59-.49h2.494c.536 0 .776.101.536.669-.052.177-.083.36-.094.544zM50.389 16.427c.916-1.206 2.144-1.33 3.44-1.276h2.494c.427 0 .582.109.473.552-.186.778-.35 1.556-.497 2.38-.062.343-.271.358-.551.358h-4.8c-.908 0-1.064.117-1.25 1.011-.614 2.925-1.235 5.85-1.818 8.774-.108.56-.295.777-.9.777-.776-.053-1.555-.053-2.33 0-.606.04-.653-.194-.544-.7.613-2.83 1.204-5.677 1.81-8.516.287-1.354.59-2.707.854-4.068.078-.412.248-.568.676-.552h2.493c.473 0 .62.14.466.59-.093.213-.098.453-.016.67zM128.007 28.964h-3.394c-1.126 0-1.506-.505-1.297-1.555.428-2.155.878-4.309 1.375-6.448.28-1.221.831-1.61 2.097-1.618h6.718c1.11 0 1.553.428 1.313 1.51-.42 2.193-.88 4.383-1.383 6.571-.05.473-.289.904-.662 1.197-.373.293-.848.423-1.318.359-1.15 0-2.3-.016-3.449-.016zm.466-2.333h1.725c.239.045.485-.014.678-.163.193-.148.313-.372.331-.615.225-1.174.466-2.333.7-3.507.131-.646.054-.778-.614-.778h-3.456c-.213-.026-.427.036-.591.173-.165.137-.266.336-.28.55-.24 1.237-.48 2.473-.776 3.702-.116.514.078.661.544.654l1.74-.016zM117.43 28.964h-3.107c-1.173 0-1.553-.482-1.36-1.61.42-2.138.87-4.262 1.344-6.385.05-.49.296-.937.68-1.243.385-.306.876-.444 1.363-.383h6.275c.427 0 .606.07.505.576-.35 1.734-.334 1.734-2.081 1.734h-3.58c-.201-.036-.408.016-.568.142-.16.127-.26.316-.272.52-.233 1.19-.504 2.333-.776 3.562-.124.544 0 .777.621.777h4.544c.473 0 .722.063.528.63-.194.568 0 1.292-.435 1.61-.435.32-1.103.086-1.678.102-.575.015-1.336-.032-2.004-.032z" transform="translate(-253 -38) translate(-3 1) translate(256 37)"/>
                    <path fill="#E40427" d="M94.829 10.889c.27-.046.546.01.777.155.424.289.965.342 1.436.14l9.437-2.03c.388-.085.567 0 .675.397.11.397-.054.537-.427.638-3.215.918-6.423 1.859-9.638 2.777-.336.082-.62.306-.777.614-.45.744-1.38 1.037-2.174.684-.743-.339-1.162-1.14-1.018-1.944.144-.83.867-1.436 1.709-1.431z" transform="translate(-253 -38) translate(-3 1) translate(256 37)"/>
                    <path fill="#E40425" d="M108.731 28.964c-1.157 0-1.157 0-.94-1.104.342-1.727.342-1.719 2.09-1.719.48 0 .73.062.52.622-.094.33-.164.665-.21 1.004-.256 1.197-.256 1.197-1.46 1.197z" transform="translate(-253 -38) translate(-3 1) translate(256 37)"/>
                </g>
            </g>
        </g>
    </g>
</svg>
